<svg width="current" height="current" viewBox="0 0 32 32" fill="current" xmlns="http://www.w3.org/2000/svg">
<path d="M9.33325 24.0001C7.86658 24.0001 6.67992 25.2001 6.67992 26.6667C6.67992 28.1334 7.86658 29.3334 9.33325 29.3334C10.7999 29.3334 11.9999 28.1334 11.9999 26.6667C11.9999 25.2001 10.7999 24.0001 9.33325 24.0001ZM1.33325 2.66675V5.33341H3.99992L8.79992 15.4534L6.99992 18.7201C6.78658 19.0934 6.66658 19.5334 6.66658 20.0001C6.66658 21.4667 7.86658 22.6667 9.33325 22.6667H25.3333V20.0001H9.89325C9.70658 20.0001 9.55992 19.8534 9.55992 19.6667L9.59992 19.5067L10.7999 17.3334H20.7333C21.7333 17.3334 22.6132 16.7867 23.0666 15.9601L27.8399 7.30675C27.9499 7.10326 28.0053 6.87472 28.0006 6.64345C27.9958 6.41218 27.9312 6.18609 27.813 5.98727C27.6948 5.78844 27.527 5.62368 27.3261 5.50908C27.1251 5.39447 26.8979 5.33395 26.6666 5.33341H6.94659L5.69325 2.66675H1.33325ZM22.6666 24.0001C21.1999 24.0001 20.0133 25.2001 20.0133 26.6667C20.0133 28.1334 21.1999 29.3334 22.6666 29.3334C24.1333 29.3334 25.3333 28.1334 25.3333 26.6667C25.3333 25.2001 24.1333 24.0001 22.6666 24.0001Z" fill="black"/>
</svg>
